<?xml version="1.0" standalone="no"?>
<!DOCTYPE svg PUBLIC "-//W3C//DTD SVG 20010904//EN"
 "http://www.w3.org/TR/2001/REC-SVG-20010904/DTD/svg10.dtd">
<svg version="1.0" xmlns="http://www.w3.org/2000/svg"
 width="1542.000000pt" height="852.000000pt" viewBox="0 0 1542.000000 852.000000"
 preserveAspectRatio="xMidYMid meet">

<g transform="translate(0.000000,852.000000) scale(0.100000,-0.100000)"
fill="#000000" stroke="none">
<path d="M2602 7915 c-134 -29 -223 -89 -267 -179 -35 -72 -45 -173 -45 -473
l0 -252 -727 -4 c-598 -2 -735 -6 -768 -17 -22 -8 -63 -38 -92 -66 -74 -73
-98 -154 -97 -319 2 -183 41 -295 127 -358 68 -51 68 -51 616 -55 l514 -3 -87
-52 c-239 -144 -472 -361 -612 -572 -128 -191 -212 -413 -244 -640 -16 -112
-17 -373 -1 -480 65 -443 320 -839 733 -1134 114 -81 327 -189 463 -234 227
-75 388 -100 650 -100 317 0 518 41 801 162 186 79 414 241 570 403 321 333
475 707 474 1147 0 324 -90 625 -258 866 -169 243 -401 460 -627 589 l-80 46
455 0 c479 0 568 6 634 43 53 29 110 106 131 176 23 76 30 232 16 317 -24 134
-98 235 -194 265 -32 10 -203 14 -738 16 l-697 4 -5 312 c-5 326 -7 344 -54
433 -59 110 -217 174 -428 173 -55 0 -128 -7 -163 -14z m382 -2245 c149 -38
271 -110 398 -234 213 -209 314 -505 280 -815 -26 -235 -110 -417 -266 -579
-182 -189 -375 -272 -631 -272 -204 0 -352 48 -511 165 -169 125 -304 323
-354 520 -73 286 -27 607 120 826 65 97 221 246 315 301 91 53 200 92 295 107
92 14 261 5 354 -19z"/>
<path d="M5911 7834 c-121 -26 -211 -82 -253 -157 -56 -100 -53 16 -53 -2057
0 -2027 -1 -1977 44 -2051 27 -44 75 -93 111 -114 193 -113 544 -96 691 33 47
42 86 123 99 207 7 48 10 670 8 1970 l-3 1900 -22 53 c-51 126 -143 192 -307
221 -81 15 -237 12 -315 -5z"/>
<path d="M9474 7670 c-105 -15 -173 -71 -215 -176 -22 -54 -24 -73 -24 -224 1
-164 1 -165 32 -230 38 -78 68 -112 125 -142 l43 -23 2415 -3 c1828 -2 2425 0
2458 9 57 16 116 59 147 110 38 59 65 177 65 278 0 217 -59 337 -189 388 -44
17 -171 18 -2426 19 -1309 1 -2403 -2 -2431 -6z"/>
<path d="M10801 6739 c-123 -15 -209 -55 -270 -125 -77 -88 -90 -162 -91 -527
l0 -257 -26 -10 c-15 -6 -211 -10 -485 -10 -306 0 -475 -4 -504 -11 -59 -15
-128 -76 -158 -142 -38 -80 -51 -163 -44 -295 8 -187 57 -282 170 -333 l52
-24 775 0 c846 0 839 0 959 58 82 40 147 123 188 242 l28 80 3 488 c4 603 0
636 -89 747 -36 45 -132 96 -206 110 -82 15 -222 19 -302 9z"/>
<path d="M12695 6739 c-162 -21 -253 -78 -314 -196 -37 -71 -42 -157 -39 -669
l3 -489 28 -80 c17 -49 47 -107 76 -146 39 -53 60 -70 112 -96 120 -58 114
-58 944 -58 613 0 769 3 807 14 68 20 126 73 161 151 27 59 31 77 35 195 7
228 -41 355 -160 417 -43 23 -48 23 -533 28 -269 3 -496 9 -502 13 -10 6 -13
71 -13 265 -1 364 -14 438 -91 526 -64 74 -147 110 -284 126 -102 11 -132 11
-230 -1z"/>
<path d="M7375 6424 c-136 -17 -232 -59 -334 -145 -97 -82 -170 -198 -202
-319 -17 -67 -15 -234 5 -309 48 -186 203 -353 392 -423 50 -19 80 -22 199
-23 122 0 148 3 205 23 173 63 316 205 379 375 24 65 26 85 26 212 -1 119 -4
149 -23 199 -69 188 -240 346 -418 390 -64 16 -181 26 -229 20z"/>
<path d="M8785 4681 c-61 -8 -134 -40 -164 -72 -78 -82 -107 -235 -80 -412 14
-89 46 -154 98 -199 80 -68 -188 -63 3151 -66 2117 -2 3056 1 3105 8 113 18
184 75 223 182 9 26 17 92 20 166 6 158 -11 230 -70 297 -51 58 -99 82 -185
95 -76 11 -6014 12 -6098 1z"/>
<path d="M4820 3626 c-92 -21 -133 -37 -186 -75 -29 -20 -258 -221 -510 -446
-253 -226 -772 -690 -1155 -1032 -412 -368 -710 -641 -732 -671 -127 -177 -67
-360 175 -532 232 -165 424 -157 628 26 30 27 481 435 1002 907 l948 857 932
-847 c513 -466 967 -877 1008 -915 209 -189 410 -194 652 -15 171 126 244 272
204 410 -34 117 9 77 -1964 1837 -244 217 -464 409 -490 426 -49 33 -111 55
-200 73 -69 14 -242 12 -312 -3z"/>
<path d="M10066 3595 c-73 -30 -96 -51 -130 -121 -62 -126 -59 -365 6 -486 33
-62 79 -105 138 -129 30 -12 316 -14 1829 -17 1285 -2 1798 -6 1808 -13 16
-14 19 -255 3 -279 -8 -13 -214 -16 -1717 -20 -1322 -5 -1718 -9 -1752 -18
-127 -37 -202 -98 -259 -216 -56 -115 -57 -124 -57 -706 l0 -535 27 -73 c62
-172 152 -254 319 -293 73 -17 4227 -25 4334 -9 142 22 207 82 246 225 18 68
21 98 16 195 -7 180 -51 270 -156 319 l-56 26 -1878 5 c-1655 4 -1879 7 -1887
20 -15 24 -13 255 3 268 9 8 502 12 1698 15 1296 3 1696 6 1738 16 166 38 257
121 319 293 l27 73 0 540 c0 574 -2 595 -49 695 -71 147 -141 202 -299 236
-58 12 -375 14 -2140 14 l-2072 0 -59 -25z"/>
</g>
</svg>
