<svg width="40" height="60" viewBox="0 0 40 60" fill="none" xmlns="http://www.w3.org/2000/svg">
<rect width="40" height="40" rx="20" fill="#FB923C"/>
<path d="M18.2679 57C19.0377 58.3333 20.9623 58.3333 21.7321 57L35.5885 33C36.3583 31.6667 35.396 30 33.8564 30H6.14359C4.60399 30 3.64174 31.6667 4.41154 33L18.2679 57Z" fill="#FB923C"/>
<circle cx="20" cy="20" r="10" fill="white"/>
<rect width="40" height="40" rx="20" fill="#FB923C"/>
<path d="M18.2679 57C19.0377 58.3333 20.9623 58.3333 21.7321 57L35.5885 33C36.3583 31.6667 35.396 30 33.8564 30H6.14359C4.60399 30 3.64174 31.6667 4.41154 33L18.2679 57Z" fill="#FB923C"/>
<circle cx="20" cy="20" r="10" fill="white"/>
<rect width="40" height="40" rx="20" fill="#FB923C"/>
<path d="M18.2679 57C19.0377 58.3333 20.9623 58.3333 21.7321 57L35.5885 33C36.3583 31.6667 35.396 30 33.8564 30H6.14359C4.60399 30 3.64174 31.6667 4.41154 33L18.2679 57Z" fill="#FB923C"/>
<circle cx="20" cy="20" r="10" fill="white"/>
<rect width="40" height="40" rx="20" fill="#FB923C"/>
<path d="M18.2679 57C19.0377 58.3333 20.9623 58.3333 21.7321 57L35.5885 33C36.3583 31.6667 35.396 30 33.8564 30H6.14359C4.60399 30 3.64174 31.6667 4.41154 33L18.2679 57Z" fill="#FB923C"/>
<circle cx="20" cy="20" r="10" fill="white"/>
</svg>
